Coordinates
version=1
nRows=38
nColumns=12
inDegrees=yes

Units are S.I. units (second, meters, Newtons, ...)
Angles are in degrees

endheader
time	SC_y	SC_z	SC_x	AC_y	AC_z	AC_x	GH_y	GH_z	GH_yy	EL_x	PS_y
       0.0              -23.49          38.05          83.78           49.9         -15.25          7.777         -129.4         -1.087         -102.7          126.7           41.2
   0.02466              -23.49          38.05          83.77           49.9         -15.25          7.777         -129.4         -1.083         -102.7          126.7          41.21
   0.04931              -23.49          38.05          83.76           49.9         -15.24          7.777         -129.4         -1.078         -102.7          126.7          41.22
   0.07397              -23.49          38.05          83.75           49.9         -15.24          7.777         -129.3         -1.073         -102.7          126.6          41.23
   0.09863               -23.5          38.04          83.74           49.9         -15.24          7.776         -129.3         -1.068         -102.7          126.6          41.24
    0.1233               -23.5          38.04          83.73           49.9         -15.24          7.776         -129.3         -1.062         -102.6          126.6          41.25
    0.1479               -23.5          38.04          83.71           49.9         -15.23          7.776         -129.2         -1.056         -102.6          126.6          41.27
    0.1726               -23.5          38.04           83.7           49.9         -15.23          7.775         -129.2          -1.05         -102.6          126.6          41.28
    0.1973              -23.51          38.03          83.68           49.9         -15.23          7.775         -129.1         -1.043         -102.6          126.6          41.29
    0.2219              -23.51          38.03          83.67           49.9         -15.22          7.775         -129.1         -1.036         -102.6          126.6          41.31
    0.2466              -23.51          38.03          83.65          49.89         -15.22          7.774         -129.1         -1.028         -102.6          126.6          41.32
    0.2712              -23.52          38.02          83.63          49.89         -15.22          7.774         -129.0         -1.019         -102.6          126.6          41.34
    0.2959              -23.52          38.02          83.61          49.89         -15.21          7.773         -128.9          -1.01         -102.6          126.6          41.36
    0.3205              -23.53          38.02          83.59          49.89         -15.21          7.773         -128.9           -1.0         -102.6          126.5          41.38
    0.3452              -23.53          38.01          83.56          49.89          -15.2          7.772         -128.8        -0.9893         -102.5          126.5           41.4
    0.3699              -23.54          38.01          83.54          49.89          -15.2          7.771         -128.8        -0.9777         -102.5          126.5          41.42
    0.3945              -23.54           38.0          83.51          49.89         -15.19          7.771         -128.7         -0.965         -102.5          126.5          41.45
    0.4192              -23.55          37.99          83.48          49.89         -15.19           7.77         -128.6        -0.9512         -102.5          126.5          41.48
    0.4438              -23.55          37.99          83.44          49.88         -15.18          7.769         -128.5        -0.9362         -102.5          126.5          41.51
    0.4685              -23.56          37.98          83.41          49.88         -15.18          7.768         -128.4        -0.9197         -102.5          126.4          41.54
    0.4931              -23.57          37.97          83.37          49.88         -15.17          7.767         -128.3        -0.9016         -102.4          126.4          41.58
    0.5178              -23.58          37.97          83.32          49.88         -15.16          7.766         -128.2        -0.8817         -102.4          126.4          41.62
    0.5425              -23.59          37.96          83.27          49.88         -15.15          7.765         -128.1        -0.8597         -102.4          126.3          41.66
    0.5671               -23.6          37.95          83.22          49.87         -15.14          7.764         -127.9        -0.8353         -102.3          126.3          41.71
    0.5918              -23.61          37.93          83.15          49.87         -15.13          7.762         -127.8        -0.8082         -102.3          126.3          41.77
    0.6164              -23.62          37.92          83.09          49.87         -15.11          7.761         -127.6         -0.778         -102.3          126.2          41.83
    0.6411              -23.64          37.91          83.01          49.86          -15.1          7.759         -127.4        -0.7441         -102.2          126.2           41.9
    0.6657              -23.65          37.89          82.92          49.86         -15.08          7.757         -127.2         -0.706         -102.2          126.1          41.97
    0.6904              -23.67          37.87          82.83          49.86         -15.06          7.755         -126.9         -0.663         -102.1          126.1          42.06
    0.7151              -23.69          37.85          82.71          49.85         -15.04          7.752         -126.6        -0.6141         -102.0          126.0          42.16
    0.7397              -23.72          37.83          82.59          49.84         -15.02          7.749         -126.3        -0.5583         -102.0          125.9          42.27
    0.7644              -23.75           37.8          82.44          49.84         -14.99          7.746         -125.9        -0.4943         -101.9          125.8           42.4
     0.789              -23.78          37.77          82.28          49.83         -14.96          7.742         -125.5        -0.4204         -101.8          125.7          42.55
    0.8137              -23.82          37.73          82.08          49.82         -14.92          7.737         -125.0        -0.3345         -101.7          125.6          42.73
    0.8384              -23.86          37.69          81.86          49.81         -14.88          7.732         -124.4         -0.234         -101.5          125.5          42.93
     0.863              -23.91          37.64          81.59           49.8         -14.83          7.725         -123.7        -0.1155         -101.4          125.3          43.17
    0.8877              -23.97          37.58          81.27          49.78         -14.77          7.718         -122.8         0.0253         -101.2          125.1          43.46
    0.9123              -24.05          37.51          80.89          49.76          -14.7          7.709         -121.8         0.1941         -100.9          124.9           43.8
